<svg class = "FIGH" width="90" height="90" viewBox="0 0 322 307" fill="none" xmlns="http://www.w3.org/2000/svg">
<g clip-path="url(#clip0_4_2)">
<path d="M94.3837 7.91522L97.5728 5.68822L100.798 16.8339L101.018 17.5932L101.583 18.1457L158.093 73.3657L160.073 75.3002L162.16 73.4822L217.65 25.1522L218.351 24.5417L218.584 23.6419L223.228 5.70593L226.41 7.45301L214.66 55.5876L160.485 103.028L158.778 101.534L158.776 101.532L106.361 55.5812L94.3837 7.91522Z" fill="#090b0e" stroke="none" stroke-width="1"/>
<path d="M1.25999 76.89L18.39 64.99L31.35 116.47L159.39 227.76L289.45 116.28L302.61 65.38L319.16 76.12L313.84 103.99L290.61 193.12L161.03 305.38L30.77 193.12L1.25999 76.89Z" fill="none" stroke="none"/>
<path d="M160.35 199.73L259.81 113.02L282.9 23.73L269.23 14.57L259.29 54.44L160.35 140.12L124.03 108.53L61.1 53.8L51.03 14.57L37.48 23.09L59.81 112.38L160.35 199.73Z" fill="none" stroke="none"/>
<path d="M103.68 57.22L90.97 6.64L99.29 0.830002L103.68 16L160.19 71.22L215.5 24L221.29 1.22L229.87 5.93L217.35 57.22L161.29 106.31H159.68L156.8 103.79L103.68 57.22Z" stroke="none" stroke-width="1"/>
<path d="M160.42 139.41L259.55 53.57L269.81 14.18L282.97 23.28L260.32 113.09L160.42 199.99L59.42 112.51L36.97 23.48L50.52 14.18L60.97 53.57L160.42 139.41Z" fill="#090b0e" stroke="none" stroke-width="1"/>
<path d="M17.92 65.61L30.77 116.29L159.39 228.75L288.39 116.49L301.55 65L318 78.5L289.93 193.33L161.03 305.39H158.71L29.42 192.75L3.5 77.5L17.92 65.61Z" fill="#090b0e" stroke="none" stroke-width="1"/>
</g>
<defs>
<clipPath id="clip0_4_2">
<rect width="321.09" height="306.04" fill="white"/>
</clipPath>
</defs>
</svg>